<svg xmlns="http://www.w3.org/2000/svg" viewBox="0 0 16 16"><circle fill="#171329" cx="8" cy="8" r="8"/>
    <g fill="#FFF">
        <path d="M12.5 8.1c-1-1.7-1.9-3.3-2.9-5-.3.6-.6 1.1-.9 1.6-.2-.3-.4-.6-.5-.8v-.2c.5-.8.9-1.6 1.4-2.5.1.1.1.2.1.2l4.2 7.2c.2.4.1.5-.2.5H6.6h-.2c.2-.3.3-.6.5-.9.1 0 .3-.1.4-.1h5.2z"/>
        <path d="M6.4 3.2c-1 1.7-1.9 3.3-2.9 5h1.8c-.2.3-.3.5-.5.8 0 .1-.2.1-.3.1H2.3c-.3 0-.4-.1-.2-.4l3.6-6.3c.2-.4.4-.8.7-1.2 1.3 2.2 2.5 4.4 3.8 6.6h-1c-.1.1-.2-.1-.2-.2-.8-1.3-1.6-2.7-2.4-4.1-.1-.1-.1-.2-.2-.3z"/>
        <path d="M7.3 5.3c.2.3.3.5.5.8v.2c-1.1 2-2.3 3.9-3.4 5.9-.1.1-.1.2-.2.2-.5.2-.6.6-.9 1-.1.1-.1.4-.3.3 0 0 0-.3.1-.4.1-.2.2-.3.3-.5.1-.2.2-.4.2-.7 0-.1 0-.3.1-.4C4.8 9.6 6 7.5 7.3 5.3c-.1 0 0 0 0 0zM10 9.4h1c.1 0 .2.1.2.2.4.7.9 1.5 1.3 2.2.1.1.1.2.1.3-.1.5.2.9.4 1.3.1.1.3.2.1.4l-.3-.3c-.1-.1-.2-.3-.3-.5-.1-.2-.2-.4-.5-.5-.1 0-.2-.1-.3-.3-.6-.9-1.1-1.8-1.7-2.8z"/>
    </g>
</svg>